<?xml version="1.0" encoding="utf-8"?>
<!-- Generator: Adobe Illustrator 16.2.0, SVG Export Plug-In . SVG Version: 6.00 Build 0)  -->
<!DOCTYPE svg PUBLIC "-//W3C//DTD SVG 1.1//EN" "http://www.w3.org/Graphics/SVG/1.1/DTD/svg11.dtd">

<svg version="1.1" id="Layer_1" sodipodi:docname="myexample.svg" inkscape:version="0.48.4 r9939" xmlns:osb="http://www.openswatchbook.org/uri/2009/osb" xmlns:dc="http://purl.org/dc/elements/1.1/" xmlns:cc="http://creativecommons.org/ns#" xmlns:rdf="http://www.w3.org/1999/02/22-rdf-syntax-ns#" xmlns:svg="http://www.w3.org/2000/svg" xmlns:sodipodi="http://sodipodi.sourceforge.net/DTD/sodipodi-0.dtd" xmlns:inkscape="http://www.inkscape.org/namespaces/inkscape" xmlns="http://www.w3.org/2000/svg" xmlns:xlink="http://www.w3.org/1999/xlink" x="0px" y="0px" width="400px" height="300px" viewBox="0 0 400 300" enable-background="new 0 0 400 300" xml:space="preserve">
	<sodipodi:namedview inkscape:pageshadow="2" inkscape:window-maximized="1" inkscape:current-layer="layer4" inkscape:window-y="-8" inkscape:window-x="-8" inkscape:window-height="838" inkscape:document-units="mm" inkscape:snap-nodes="false" inkscape:object-paths="false" inkscape:snap-global="true" inkscape:pageopacity="0.0" inkscape:window-width="1600" showgrid="false" id="namedview2991" inkscape:cy="544.41083" inkscape:cx="264.29004" inkscape:zoom="2" borderopacity="1.0" bordercolor="#666666" pagecolor="#ffffff">
	</sodipodi:namedview>
	<g>
		<g id="Paths">
			<line fill="none" stroke="#000000" x1="317.501" y1="241.974" x2="318" y2="251.138" stroke-opacity="0"></line>
			<line fill="none" stroke="#000000" x1="318" y1="251.138" x2="273.945" y2="251.138" stroke-opacity="0"></line>
			<line fill="none" stroke="#000000" x1="273.945" y1="251.138" x2="273.945" y2="210.138" stroke-opacity="0"></line>
			<line fill="none" stroke="#000000" x1="273.945" y1="210.138" x2="239.544" y2="210.138" stroke-opacity="0"></line>
			<line fill="none" stroke="#000000" x1="238.5" y1="221.094" x2="239.544" y2="210.138" stroke-opacity="0"></line>
			<line fill="none" stroke="#000000" x1="273.945" y1="210.138" x2="273.945" y2="189.594" stroke-opacity="0"></line>
			<line fill="none" stroke="#000000" x1="273.945" y1="189.594" x2="248.758" y2="189.594" stroke-opacity="0"></line>
			<line fill="none" stroke="#000000" x1="273.945" y1="189.594" x2="273.945" y2="171.622" stroke-opacity="0"></line>
			<line fill="none" stroke="#000000" x1="273.945" y1="171.622" x2="290.217" y2="171.594" stroke-opacity="0"></line>
			<line fill="none" stroke="#000000" x1="273.945" y1="171.622" x2="273.945" y2="150.638" stroke-opacity="0"></line>
			<line fill="none" stroke="#000000" x1="273.945" y1="150.638" x2="220.445" y2="150.638" stroke-opacity="0"></line>
			<line fill="none" stroke="#000000" x1="220.445" y1="150.638" x2="220.445" y2="117.594" stroke-opacity="0"></line>
			<line fill="none" stroke="#000000" x1="220.445" y1="117.594" x2="232.634" y2="117.594" stroke-opacity="0"></line>
			<line fill="none" stroke="#000000" x1="220.445" y1="150.638" x2="187.445" y2="150.638" stroke-opacity="0"></line>
			<line fill="none" stroke="#000000" x1="187.445" y1="150.638" x2="187.445" y2="169.094" stroke-opacity="0"></line>
			<line fill="none" stroke="#000000" x1="187.445" y1="169.094" x2="172.748" y2="169.094" stroke-opacity="0"></line>
			<line fill="none" stroke="#000000" x1="187.445" y1="150.638" x2="137.5" y2="150.638" stroke-opacity="0"></line>
			<line fill="none" stroke="#000000" x1="137.5" y1="150.638" x2="138" y2="145.235" stroke-opacity="0"></line>
			<line fill="none" stroke="#000000" x1="187.445" y1="169.094" x2="187.445" y2="243.594" stroke-opacity="0"></line>
			<line fill="none" stroke="#000000" x1="187.445" y1="243.594" x2="170.445" y2="243.594" stroke-opacity="0"></line>
			<line fill="none" stroke="#000000" x1="239.544" y1="210.138" x2="187.445" y2="210.138" stroke-opacity="0"></line>
			<line fill="none" stroke="#000000" x1="318" y1="251.138" x2="317.501" y2="269.638" stroke-opacity="0"></line>
			<line fill="none" stroke="#000000" x1="317.501" y1="269.638" x2="187.445" y2="269.638" stroke-opacity="0"></line>
			<line fill="none" stroke="#000000" x1="187.445" y1="269.638" x2="187.445" y2="243.594" stroke-opacity="0"></line>
			<line fill="none" stroke="#000000" x1="137.5" y1="150.638" x2="104.945" y2="150.638" stroke-opacity="0"></line>
			<line fill="none" stroke="#000000" x1="104.945" y1="150.638" x2="104.945" y2="269.638" stroke-opacity="0"></line>
			<line fill="none" stroke="#000000" x1="104.945" y1="269.638" x2="187.445" y2="269.638" stroke-opacity="0"></line>
			<line fill="none" stroke="#000000" x1="187.445" y1="210.138" x2="104.945" y2="210.138" stroke-opacity="0"></line>
			<line fill="none" stroke="#000000" stroke-miterlimit="10" x1="318" y1="251.138" x2="369.779" y2="251.138" stroke-opacity="0"></line>
			<line fill="none" stroke="#000000" stroke-miterlimit="10" x1="347.799" y1="150.638" x2="347.799" y2="103.344" stroke-opacity="0"></line>
			<line fill="none" stroke="#000000" stroke-miterlimit="10" x1="273.945" y1="150.638" x2="347.799" y2="150.638" stroke-opacity="0"></line>
			<line fill="none" stroke="#000000" x1="369.779" y1="150.638" x2="369.779" y2="251.138" stroke-opacity="0"></line>
			<line fill="none" stroke="#000000" x1="347.799" y1="150.638" x2="369.779" y2="150.638" stroke-opacity="0"></line>
			<line fill="none" stroke="#000000" stroke-miterlimit="10" x1="369.779" y1="251.138" x2="368.113" y2="256.616" stroke-opacity="0"></line>
		</g>
		<g id="Doors">
			<line id="A1" fill="none" stroke="#000000" x1="138" y1="145.235" x2="140.594" y2="140.623" stroke-opacity="1"></line>
			<line id="Entrance" fill="none" stroke="#000000" x1="1157.264" y1="60.569" stroke-opacity="1"><line/>
		</g>
	</g>
</svg>
